<mxfile host="app.diagrams.net" modified="2023-09-17T21:30:03.632Z" agent="Mozilla/5.0 (Macintosh; Intel Mac OS X 10_15_7) AppleWebKit/537.36 (KHTML, like Gecko) Chrome/114.0.0.0 Safari/537.36" etag="u8nQkKXNAJoEjeryk-0D" version="21.7.4" type="github">
  <diagram id="R2lEEEUBdFMjLlhIrx00" name="Page-1">
    <mxGraphModel dx="1103" dy="651" grid="1" gridSize="10" guides="1" tooltips="1" connect="1" arrows="1" fold="1" page="1" pageScale="1" pageWidth="850" pageHeight="1100" math="0" shadow="0" extFonts="Permanent Marker^https://fonts.googleapis.com/css?family=Permanent+Marker">
      <root>
        <mxCell id="0" />
        <mxCell id="1" parent="0" />
        <mxCell id="BaDLSpwHCjFPU6KFAHDN-38" style="edgeStyle=orthogonalEdgeStyle;curved=1;rounded=0;orthogonalLoop=1;jettySize=auto;html=1;startArrow=ERoneToMany;startFill=0;endArrow=ERone;endFill=0;" edge="1" parent="1" source="C-vyLk0tnHw3VtMMgP7b-23" target="BaDLSpwHCjFPU6KFAHDN-27">
          <mxGeometry relative="1" as="geometry" />
        </mxCell>
        <mxCell id="BaDLSpwHCjFPU6KFAHDN-39" value="Student" style="edgeLabel;html=1;align=center;verticalAlign=middle;resizable=0;points=[];" vertex="1" connectable="0" parent="BaDLSpwHCjFPU6KFAHDN-38">
          <mxGeometry x="-0.78" y="-1" relative="1" as="geometry">
            <mxPoint x="26" as="offset" />
          </mxGeometry>
        </mxCell>
        <mxCell id="BaDLSpwHCjFPU6KFAHDN-40" value="Belongs" style="edgeLabel;html=1;align=center;verticalAlign=middle;resizable=0;points=[];" vertex="1" connectable="0" parent="BaDLSpwHCjFPU6KFAHDN-38">
          <mxGeometry relative="1" as="geometry">
            <mxPoint x="25" as="offset" />
          </mxGeometry>
        </mxCell>
        <mxCell id="BaDLSpwHCjFPU6KFAHDN-41" value="Group" style="edgeLabel;html=1;align=center;verticalAlign=middle;resizable=0;points=[];" vertex="1" connectable="0" parent="BaDLSpwHCjFPU6KFAHDN-38">
          <mxGeometry x="0.84" y="1" relative="1" as="geometry">
            <mxPoint x="24" as="offset" />
          </mxGeometry>
        </mxCell>
        <mxCell id="C-vyLk0tnHw3VtMMgP7b-23" value="Person" style="shape=table;startSize=30;container=1;collapsible=1;childLayout=tableLayout;fixedRows=1;rowLines=0;fontStyle=1;align=center;resizeLast=1;" parent="1" vertex="1">
          <mxGeometry x="80" y="330" width="250" height="160" as="geometry" />
        </mxCell>
        <mxCell id="C-vyLk0tnHw3VtMMgP7b-24" value="" style="shape=partialRectangle;collapsible=0;dropTarget=0;pointerEvents=0;fillColor=none;points=[[0,0.5],[1,0.5]];portConstraint=eastwest;top=0;left=0;right=0;bottom=1;" parent="C-vyLk0tnHw3VtMMgP7b-23" vertex="1">
          <mxGeometry y="30" width="250" height="30" as="geometry" />
        </mxCell>
        <mxCell id="C-vyLk0tnHw3VtMMgP7b-25" value="PersonId" style="shape=partialRectangle;overflow=hidden;connectable=0;fillColor=none;top=0;left=0;bottom=0;right=0;fontStyle=4;" parent="C-vyLk0tnHw3VtMMgP7b-24" vertex="1">
          <mxGeometry width="170" height="30" as="geometry">
            <mxRectangle width="170" height="30" as="alternateBounds" />
          </mxGeometry>
        </mxCell>
        <mxCell id="C-vyLk0tnHw3VtMMgP7b-26" value="id" style="shape=partialRectangle;overflow=hidden;connectable=0;fillColor=none;top=0;left=0;bottom=0;right=0;align=left;spacingLeft=6;fontStyle=0;" parent="C-vyLk0tnHw3VtMMgP7b-24" vertex="1">
          <mxGeometry x="170" width="80" height="30" as="geometry">
            <mxRectangle width="80" height="30" as="alternateBounds" />
          </mxGeometry>
        </mxCell>
        <mxCell id="C-vyLk0tnHw3VtMMgP7b-27" value="" style="shape=partialRectangle;collapsible=0;dropTarget=0;pointerEvents=0;fillColor=none;points=[[0,0.5],[1,0.5]];portConstraint=eastwest;top=0;left=0;right=0;bottom=0;" parent="C-vyLk0tnHw3VtMMgP7b-23" vertex="1">
          <mxGeometry y="60" width="250" height="30" as="geometry" />
        </mxCell>
        <mxCell id="C-vyLk0tnHw3VtMMgP7b-28" value="LastName" style="shape=partialRectangle;overflow=hidden;connectable=0;fillColor=none;top=0;left=0;bottom=0;right=0;" parent="C-vyLk0tnHw3VtMMgP7b-27" vertex="1">
          <mxGeometry width="170" height="30" as="geometry">
            <mxRectangle width="170" height="30" as="alternateBounds" />
          </mxGeometry>
        </mxCell>
        <mxCell id="C-vyLk0tnHw3VtMMgP7b-29" value="name" style="shape=partialRectangle;overflow=hidden;connectable=0;fillColor=none;top=0;left=0;bottom=0;right=0;align=left;spacingLeft=6;" parent="C-vyLk0tnHw3VtMMgP7b-27" vertex="1">
          <mxGeometry x="170" width="80" height="30" as="geometry">
            <mxRectangle width="80" height="30" as="alternateBounds" />
          </mxGeometry>
        </mxCell>
        <mxCell id="BaDLSpwHCjFPU6KFAHDN-8" style="shape=partialRectangle;collapsible=0;dropTarget=0;pointerEvents=0;fillColor=none;points=[[0,0.5],[1,0.5]];portConstraint=eastwest;top=0;left=0;right=0;bottom=0;" vertex="1" parent="C-vyLk0tnHw3VtMMgP7b-23">
          <mxGeometry y="90" width="250" height="30" as="geometry" />
        </mxCell>
        <mxCell id="BaDLSpwHCjFPU6KFAHDN-9" value="FirstName" style="shape=partialRectangle;overflow=hidden;connectable=0;fillColor=none;top=0;left=0;bottom=0;right=0;" vertex="1" parent="BaDLSpwHCjFPU6KFAHDN-8">
          <mxGeometry width="170" height="30" as="geometry">
            <mxRectangle width="170" height="30" as="alternateBounds" />
          </mxGeometry>
        </mxCell>
        <mxCell id="BaDLSpwHCjFPU6KFAHDN-10" value="name" style="shape=partialRectangle;overflow=hidden;connectable=0;fillColor=none;top=0;left=0;bottom=0;right=0;align=left;spacingLeft=6;" vertex="1" parent="BaDLSpwHCjFPU6KFAHDN-8">
          <mxGeometry x="170" width="80" height="30" as="geometry">
            <mxRectangle width="80" height="30" as="alternateBounds" />
          </mxGeometry>
        </mxCell>
        <mxCell id="BaDLSpwHCjFPU6KFAHDN-11" style="shape=partialRectangle;collapsible=0;dropTarget=0;pointerEvents=0;fillColor=none;points=[[0,0.5],[1,0.5]];portConstraint=eastwest;top=0;left=0;right=0;bottom=0;" vertex="1" parent="C-vyLk0tnHw3VtMMgP7b-23">
          <mxGeometry y="120" width="250" height="30" as="geometry" />
        </mxCell>
        <mxCell id="BaDLSpwHCjFPU6KFAHDN-12" value="BirthDay" style="shape=partialRectangle;overflow=hidden;connectable=0;fillColor=none;top=0;left=0;bottom=0;right=0;" vertex="1" parent="BaDLSpwHCjFPU6KFAHDN-11">
          <mxGeometry width="170" height="30" as="geometry">
            <mxRectangle width="170" height="30" as="alternateBounds" />
          </mxGeometry>
        </mxCell>
        <mxCell id="BaDLSpwHCjFPU6KFAHDN-13" value="date" style="shape=partialRectangle;overflow=hidden;connectable=0;fillColor=none;top=0;left=0;bottom=0;right=0;align=left;spacingLeft=6;" vertex="1" parent="BaDLSpwHCjFPU6KFAHDN-11">
          <mxGeometry x="170" width="80" height="30" as="geometry">
            <mxRectangle width="80" height="30" as="alternateBounds" />
          </mxGeometry>
        </mxCell>
        <mxCell id="BaDLSpwHCjFPU6KFAHDN-68" style="edgeStyle=orthogonalEdgeStyle;curved=1;rounded=0;orthogonalLoop=1;jettySize=auto;html=1;exitX=0.5;exitY=1;exitDx=0;exitDy=0;entryX=0.46;entryY=0;entryDx=0;entryDy=0;entryPerimeter=0;endArrow=none;endFill=0;" edge="1" parent="1" source="BaDLSpwHCjFPU6KFAHDN-14" target="BaDLSpwHCjFPU6KFAHDN-53">
          <mxGeometry relative="1" as="geometry" />
        </mxCell>
        <mxCell id="BaDLSpwHCjFPU6KFAHDN-69" value="Grade" style="edgeLabel;html=1;align=center;verticalAlign=middle;resizable=0;points=[];" vertex="1" connectable="0" parent="BaDLSpwHCjFPU6KFAHDN-68">
          <mxGeometry x="0.687" y="2" relative="1" as="geometry">
            <mxPoint x="23" as="offset" />
          </mxGeometry>
        </mxCell>
        <mxCell id="BaDLSpwHCjFPU6KFAHDN-70" value="Given on" style="edgeLabel;html=1;align=center;verticalAlign=middle;resizable=0;points=[];" vertex="1" connectable="0" parent="BaDLSpwHCjFPU6KFAHDN-68">
          <mxGeometry x="-0.0957" relative="1" as="geometry">
            <mxPoint x="35" y="-2" as="offset" />
          </mxGeometry>
        </mxCell>
        <mxCell id="BaDLSpwHCjFPU6KFAHDN-71" value="Course" style="edgeLabel;html=1;align=center;verticalAlign=middle;resizable=0;points=[];" vertex="1" connectable="0" parent="BaDLSpwHCjFPU6KFAHDN-68">
          <mxGeometry x="-0.8783" y="-3" relative="1" as="geometry">
            <mxPoint x="28" y="3" as="offset" />
          </mxGeometry>
        </mxCell>
        <mxCell id="BaDLSpwHCjFPU6KFAHDN-14" value="Course" style="shape=table;startSize=30;container=1;collapsible=1;childLayout=tableLayout;fixedRows=1;rowLines=0;fontStyle=1;align=center;resizeLast=1;" vertex="1" parent="1">
          <mxGeometry x="540" y="130" width="250" height="100" as="geometry" />
        </mxCell>
        <mxCell id="BaDLSpwHCjFPU6KFAHDN-15" value="" style="shape=partialRectangle;collapsible=0;dropTarget=0;pointerEvents=0;fillColor=none;points=[[0,0.5],[1,0.5]];portConstraint=eastwest;top=0;left=0;right=0;bottom=1;" vertex="1" parent="BaDLSpwHCjFPU6KFAHDN-14">
          <mxGeometry y="30" width="250" height="30" as="geometry" />
        </mxCell>
        <mxCell id="BaDLSpwHCjFPU6KFAHDN-16" value="CourseId" style="shape=partialRectangle;overflow=hidden;connectable=0;fillColor=none;top=0;left=0;bottom=0;right=0;fontStyle=4;" vertex="1" parent="BaDLSpwHCjFPU6KFAHDN-15">
          <mxGeometry width="170" height="30" as="geometry">
            <mxRectangle width="170" height="30" as="alternateBounds" />
          </mxGeometry>
        </mxCell>
        <mxCell id="BaDLSpwHCjFPU6KFAHDN-17" value="id" style="shape=partialRectangle;overflow=hidden;connectable=0;fillColor=none;top=0;left=0;bottom=0;right=0;align=left;spacingLeft=6;fontStyle=0;" vertex="1" parent="BaDLSpwHCjFPU6KFAHDN-15">
          <mxGeometry x="170" width="80" height="30" as="geometry">
            <mxRectangle width="80" height="30" as="alternateBounds" />
          </mxGeometry>
        </mxCell>
        <mxCell id="BaDLSpwHCjFPU6KFAHDN-18" value="" style="shape=partialRectangle;collapsible=0;dropTarget=0;pointerEvents=0;fillColor=none;points=[[0,0.5],[1,0.5]];portConstraint=eastwest;top=0;left=0;right=0;bottom=0;" vertex="1" parent="BaDLSpwHCjFPU6KFAHDN-14">
          <mxGeometry y="60" width="250" height="30" as="geometry" />
        </mxCell>
        <mxCell id="BaDLSpwHCjFPU6KFAHDN-19" value="CourseName" style="shape=partialRectangle;overflow=hidden;connectable=0;fillColor=none;top=0;left=0;bottom=0;right=0;" vertex="1" parent="BaDLSpwHCjFPU6KFAHDN-18">
          <mxGeometry width="170" height="30" as="geometry">
            <mxRectangle width="170" height="30" as="alternateBounds" />
          </mxGeometry>
        </mxCell>
        <mxCell id="BaDLSpwHCjFPU6KFAHDN-20" value="name" style="shape=partialRectangle;overflow=hidden;connectable=0;fillColor=none;top=0;left=0;bottom=0;right=0;align=left;spacingLeft=6;" vertex="1" parent="BaDLSpwHCjFPU6KFAHDN-18">
          <mxGeometry x="170" width="80" height="30" as="geometry">
            <mxRectangle width="80" height="30" as="alternateBounds" />
          </mxGeometry>
        </mxCell>
        <mxCell id="BaDLSpwHCjFPU6KFAHDN-27" value="Group" style="shape=table;startSize=30;container=1;collapsible=1;childLayout=tableLayout;fixedRows=1;rowLines=0;fontStyle=1;align=center;resizeLast=1;" vertex="1" parent="1">
          <mxGeometry x="80" y="130" width="250" height="70" as="geometry" />
        </mxCell>
        <mxCell id="BaDLSpwHCjFPU6KFAHDN-28" value="" style="shape=partialRectangle;collapsible=0;dropTarget=0;pointerEvents=0;fillColor=none;points=[[0,0.5],[1,0.5]];portConstraint=eastwest;top=0;left=0;right=0;bottom=1;" vertex="1" parent="BaDLSpwHCjFPU6KFAHDN-27">
          <mxGeometry y="30" width="250" height="30" as="geometry" />
        </mxCell>
        <mxCell id="BaDLSpwHCjFPU6KFAHDN-29" value="GroupName" style="shape=partialRectangle;overflow=hidden;connectable=0;fillColor=none;top=0;left=0;bottom=0;right=0;fontStyle=4;" vertex="1" parent="BaDLSpwHCjFPU6KFAHDN-28">
          <mxGeometry width="170" height="30" as="geometry">
            <mxRectangle width="170" height="30" as="alternateBounds" />
          </mxGeometry>
        </mxCell>
        <mxCell id="BaDLSpwHCjFPU6KFAHDN-30" value="name" style="shape=partialRectangle;overflow=hidden;connectable=0;fillColor=none;top=0;left=0;bottom=0;right=0;align=left;spacingLeft=6;fontStyle=0;" vertex="1" parent="BaDLSpwHCjFPU6KFAHDN-28">
          <mxGeometry x="170" width="80" height="30" as="geometry">
            <mxRectangle width="80" height="30" as="alternateBounds" />
          </mxGeometry>
        </mxCell>
        <mxCell id="BaDLSpwHCjFPU6KFAHDN-34" style="edgeStyle=orthogonalEdgeStyle;rounded=0;orthogonalLoop=1;jettySize=auto;html=1;exitX=1;exitY=0.5;exitDx=0;exitDy=0;endArrow=ERoneToMany;endFill=0;curved=1;startArrow=ERoneToMany;startFill=0;" edge="1" parent="1" source="BaDLSpwHCjFPU6KFAHDN-28" target="BaDLSpwHCjFPU6KFAHDN-15">
          <mxGeometry relative="1" as="geometry" />
        </mxCell>
        <mxCell id="BaDLSpwHCjFPU6KFAHDN-36" value="Course" style="edgeLabel;html=1;align=center;verticalAlign=middle;resizable=0;points=[];" vertex="1" connectable="0" parent="BaDLSpwHCjFPU6KFAHDN-34">
          <mxGeometry x="0.5059" y="-1" relative="1" as="geometry">
            <mxPoint x="22" y="-13" as="offset" />
          </mxGeometry>
        </mxCell>
        <mxCell id="BaDLSpwHCjFPU6KFAHDN-51" value="Group" style="edgeLabel;html=1;align=center;verticalAlign=middle;resizable=0;points=[];" vertex="1" connectable="0" parent="BaDLSpwHCjFPU6KFAHDN-34">
          <mxGeometry x="-0.8" y="2" relative="1" as="geometry">
            <mxPoint x="3" y="-13" as="offset" />
          </mxGeometry>
        </mxCell>
        <mxCell id="BaDLSpwHCjFPU6KFAHDN-52" value="has" style="edgeLabel;html=1;align=center;verticalAlign=middle;resizable=0;points=[];" vertex="1" connectable="0" parent="BaDLSpwHCjFPU6KFAHDN-34">
          <mxGeometry x="-0.0706" y="-2" relative="1" as="geometry">
            <mxPoint x="11" y="-17" as="offset" />
          </mxGeometry>
        </mxCell>
        <mxCell id="BaDLSpwHCjFPU6KFAHDN-42" style="edgeStyle=orthogonalEdgeStyle;curved=1;rounded=0;orthogonalLoop=1;jettySize=auto;html=1;exitX=1;exitY=0.188;exitDx=0;exitDy=0;exitPerimeter=0;endArrow=ERoneToMany;endFill=0;startArrow=ERoneToMany;startFill=0;" edge="1" parent="1" source="C-vyLk0tnHw3VtMMgP7b-23" target="BaDLSpwHCjFPU6KFAHDN-18">
          <mxGeometry relative="1" as="geometry" />
        </mxCell>
        <mxCell id="BaDLSpwHCjFPU6KFAHDN-47" value="Teacher" style="edgeLabel;html=1;align=center;verticalAlign=middle;resizable=0;points=[];" vertex="1" connectable="0" parent="BaDLSpwHCjFPU6KFAHDN-42">
          <mxGeometry x="-0.8353" relative="1" as="geometry">
            <mxPoint x="10" y="-5" as="offset" />
          </mxGeometry>
        </mxCell>
        <mxCell id="BaDLSpwHCjFPU6KFAHDN-49" value="teaches" style="edgeLabel;html=1;align=center;verticalAlign=middle;resizable=0;points=[];" vertex="1" connectable="0" parent="BaDLSpwHCjFPU6KFAHDN-42">
          <mxGeometry x="-0.0471" y="-5" relative="1" as="geometry">
            <mxPoint x="-10" as="offset" />
          </mxGeometry>
        </mxCell>
        <mxCell id="BaDLSpwHCjFPU6KFAHDN-50" value="Course" style="edgeLabel;html=1;align=center;verticalAlign=middle;resizable=0;points=[];" vertex="1" connectable="0" parent="BaDLSpwHCjFPU6KFAHDN-42">
          <mxGeometry x="0.7412" y="-4" relative="1" as="geometry">
            <mxPoint y="11" as="offset" />
          </mxGeometry>
        </mxCell>
        <mxCell id="BaDLSpwHCjFPU6KFAHDN-53" value="Grade" style="shape=table;startSize=30;container=1;collapsible=1;childLayout=tableLayout;fixedRows=1;rowLines=0;fontStyle=1;align=center;resizeLast=1;rounded=1;" vertex="1" parent="1">
          <mxGeometry x="550" y="420" width="250" height="70" as="geometry" />
        </mxCell>
        <mxCell id="BaDLSpwHCjFPU6KFAHDN-57" value="" style="shape=partialRectangle;collapsible=0;dropTarget=0;pointerEvents=0;fillColor=none;points=[[0,0.5],[1,0.5]];portConstraint=eastwest;top=0;left=0;right=0;bottom=0;" vertex="1" parent="BaDLSpwHCjFPU6KFAHDN-53">
          <mxGeometry y="30" width="250" height="30" as="geometry" />
        </mxCell>
        <mxCell id="BaDLSpwHCjFPU6KFAHDN-58" value="GradeValue" style="shape=partialRectangle;overflow=hidden;connectable=0;fillColor=none;top=0;left=0;bottom=0;right=0;" vertex="1" parent="BaDLSpwHCjFPU6KFAHDN-57">
          <mxGeometry width="170" height="30" as="geometry">
            <mxRectangle width="170" height="30" as="alternateBounds" />
          </mxGeometry>
        </mxCell>
        <mxCell id="BaDLSpwHCjFPU6KFAHDN-59" value="int" style="shape=partialRectangle;overflow=hidden;connectable=0;fillColor=none;top=0;left=0;bottom=0;right=0;align=left;spacingLeft=6;" vertex="1" parent="BaDLSpwHCjFPU6KFAHDN-57">
          <mxGeometry x="170" width="80" height="30" as="geometry">
            <mxRectangle width="80" height="30" as="alternateBounds" />
          </mxGeometry>
        </mxCell>
        <mxCell id="BaDLSpwHCjFPU6KFAHDN-60" style="edgeStyle=orthogonalEdgeStyle;curved=1;rounded=0;orthogonalLoop=1;jettySize=auto;html=1;exitX=1;exitY=0.5;exitDx=0;exitDy=0;entryX=0;entryY=0.5;entryDx=0;entryDy=0;endArrow=none;endFill=0;" edge="1" parent="1" source="BaDLSpwHCjFPU6KFAHDN-11" target="BaDLSpwHCjFPU6KFAHDN-57">
          <mxGeometry relative="1" as="geometry" />
        </mxCell>
        <mxCell id="BaDLSpwHCjFPU6KFAHDN-61" value="Student" style="edgeLabel;html=1;align=center;verticalAlign=middle;resizable=0;points=[];" vertex="1" connectable="0" parent="BaDLSpwHCjFPU6KFAHDN-60">
          <mxGeometry x="-0.7628" y="-1" relative="1" as="geometry">
            <mxPoint as="offset" />
          </mxGeometry>
        </mxCell>
        <mxCell id="BaDLSpwHCjFPU6KFAHDN-63" value="grade" style="edgeLabel;html=1;align=center;verticalAlign=middle;resizable=0;points=[];" vertex="1" connectable="0" parent="BaDLSpwHCjFPU6KFAHDN-60">
          <mxGeometry x="0.8399" y="-2" relative="1" as="geometry">
            <mxPoint x="-12" as="offset" />
          </mxGeometry>
        </mxCell>
        <mxCell id="BaDLSpwHCjFPU6KFAHDN-78" value="has" style="edgeLabel;html=1;align=center;verticalAlign=middle;resizable=0;points=[];" vertex="1" connectable="0" parent="BaDLSpwHCjFPU6KFAHDN-60">
          <mxGeometry x="0.0091" y="1" relative="1" as="geometry">
            <mxPoint as="offset" />
          </mxGeometry>
        </mxCell>
        <mxCell id="BaDLSpwHCjFPU6KFAHDN-64" style="edgeStyle=orthogonalEdgeStyle;curved=1;rounded=0;orthogonalLoop=1;jettySize=auto;html=1;endArrow=none;endFill=0;" edge="1" parent="1" source="BaDLSpwHCjFPU6KFAHDN-8">
          <mxGeometry relative="1" as="geometry">
            <mxPoint x="340" y="280" as="sourcePoint" />
            <mxPoint x="550" y="435" as="targetPoint" />
          </mxGeometry>
        </mxCell>
        <mxCell id="BaDLSpwHCjFPU6KFAHDN-65" value="Teacher" style="edgeLabel;html=1;align=center;verticalAlign=middle;resizable=0;points=[];" vertex="1" connectable="0" parent="BaDLSpwHCjFPU6KFAHDN-64">
          <mxGeometry x="-0.909" y="-3" relative="1" as="geometry">
            <mxPoint x="20" as="offset" />
          </mxGeometry>
        </mxCell>
        <mxCell id="BaDLSpwHCjFPU6KFAHDN-67" value="grade" style="edgeLabel;html=1;align=center;verticalAlign=middle;resizable=0;points=[];" vertex="1" connectable="0" parent="BaDLSpwHCjFPU6KFAHDN-64">
          <mxGeometry x="0.7693" y="1" relative="1" as="geometry">
            <mxPoint x="1" as="offset" />
          </mxGeometry>
        </mxCell>
        <mxCell id="BaDLSpwHCjFPU6KFAHDN-77" value="gave" style="edgeLabel;html=1;align=center;verticalAlign=middle;resizable=0;points=[];" vertex="1" connectable="0" parent="BaDLSpwHCjFPU6KFAHDN-64">
          <mxGeometry x="-0.0658" y="2" relative="1" as="geometry">
            <mxPoint as="offset" />
          </mxGeometry>
        </mxCell>
        <mxCell id="BaDLSpwHCjFPU6KFAHDN-79" value="" style="rounded=1;whiteSpace=wrap;html=1;fillColor=none;strokeColor=#001eff;strokeWidth=3;" vertex="1" parent="1">
          <mxGeometry x="40" y="110" width="340" height="400" as="geometry" />
        </mxCell>
      </root>
    </mxGraphModel>
  </diagram>
</mxfile>
